<?xml version="1.0" encoding="UTF-8" standalone="no"?>
<!-- Created with Inkscape (http://www.inkscape.org/) -->

<svg
   xmlns:dc="http://purl.org/dc/elements/1.1/"
   xmlns:cc="http://creativecommons.org/ns#"
   xmlns:rdf="http://www.w3.org/1999/02/22-rdf-syntax-ns#"
   xmlns:svg="http://www.w3.org/2000/svg"
   xmlns="http://www.w3.org/2000/svg"
   xmlns:sodipodi="http://sodipodi.sourceforge.net/DTD/sodipodi-0.dtd"
   xmlns:inkscape="http://www.inkscape.org/namespaces/inkscape"
   width="30.418703mm"
   height="20.282021mm"
   viewBox="0 0 107.78281 71.865429"
   id="svg2"
   version="1.1"
   inkscape:version="0.91 r13725"
   sodipodi:docname="VPLBDXLOGO-dark.svg">
  <defs
     id="defs4" />
  <sodipodi:namedview
     id="base"
     pagecolor="#ffffff"
     bordercolor="#666666"
     borderopacity="1.0"
     inkscape:pageopacity="0.0"
     inkscape:pageshadow="2"
     inkscape:zoom="3.0041261"
     inkscape:cx="27.504239"
     inkscape:cy="2.9958937"
     inkscape:document-units="px"
     inkscape:current-layer="layer1"
     showgrid="false"
     fit-margin-top="0"
     fit-margin-left="0"
     fit-margin-right="0"
     fit-margin-bottom="0"
     inkscape:window-width="1366"
     inkscape:window-height="723"
     inkscape:window-x="0"
     inkscape:window-y="1"
     inkscape:window-maximized="1" />
  <metadata
     id="metadata7">
    <rdf:RDF>
      <cc:Work
         rdf:about="">
        <dc:format>image/svg+xml</dc:format>
        <dc:type
           rdf:resource="http://purl.org/dc/dcmitype/StillImage" />
        <dc:title></dc:title>
      </cc:Work>
    </rdf:RDF>
  </metadata>
  <g
     inkscape:label="Calque 1"
     inkscape:groupmode="layer"
     id="layer1"
     transform="translate(-73.214218,-606.58179)">
    <path
       style="fill:#ffffff"
       d="m 102.06319,677.43886 c -1.29516,-0.51875 -3.611087,-1.8377 -5.146497,-2.93101 -2.55846,-1.82179 -3.03002,-1.86352 -5.64516,-0.4996 -3.92062,2.04478 -8.23874,1.86789 -12.11642,-0.49634 -6.62225,-4.03763 -7.92058,-12.65935 -2.81958,-18.72367 1.97438,-2.34724 2.26188,-3.57006 1.8489,-7.86384 -0.88544,-9.20581 3.81229,-14.63795 12.60008,-14.56988 l 4.92385,0.0381 0.65555,-4.37155 c 1.19081,-7.94085 7.548147,-13.17883 14.812567,-12.20447 3.62319,0.48597 4.26017,0.18602 8.08752,-3.80843 2.28502,-2.38477 5.39491,-4.64726 6.91087,-5.02774 10.25089,-2.57281 19.71775,7.76847 16.27071,17.77358 l -1.36881,3.973 3.08712,-0.61742 c 6.34332,-1.26867 13.75414,-10.05636 13.75414,-16.30957 0,-2.04643 2.51231,-3.88938 3.38254,-2.48132 0.67459,1.09152 -1.25806,10.46558 -2.39135,11.59887 -1.87057,1.87057 -0.98647,3.27603 2.76848,4.40104 6.77968,2.03124 11.85283,6.69212 15.73887,14.45985 l 3.58046,7.15693 -2.2895,0.86843 c -3.6667,1.39081 -13.84242,-0.20408 -18.92108,-2.9656 -5.07067,-2.75717 -7.231,-5.76918 -6.70753,-9.35189 0.53237,-3.64361 2.61373,-3.45275 4.21799,0.38679 1.75127,4.19137 5.80885,6.51523 12.8273,7.34647 l 5.09865,0.60385 -2.40241,-4.29091 c -3.87848,-6.92727 -11.39563,-11.28349 -17.90242,-10.37453 -4.58939,0.64112 -10.11891,3.5985 -9.54152,5.10315 0.29783,0.77615 0.54152,3.34479 0.54152,5.70808 0,3.80793 0.33315,4.43489 2.92771,5.50959 4.35987,1.80591 6.25064,4.43262 6.81874,9.47279 0.65214,5.78577 -0.8992,9.44968 -5.26492,12.43458 -2.89909,1.98215 -4.34013,2.29453 -8.66696,1.87877 -3.9526,-0.37979 -5.91974,-0.0535 -8.25214,1.36883 -3.33665,2.03472 -8.97036,2.43077 -12.96624,0.91154 -2.07158,-0.78761 -2.79062,-0.59708 -3.94013,1.04409 -1.5844,2.26204 -8.2755,5.95244 -10.6175,5.85595 -0.84621,-0.0349 -2.59824,-0.48781 -3.8934,-1.00655 z"
       id="path3450"
       inkscape:connector-curvature="0" />
    <path
       style="fill:#000000"
       d="m 111.35127,670.58257 c 1.55154,-1.71443 1.60835,-2.52883 0.51671,-7.40679 -1.05471,-4.71297 -1.59229,-5.54384 -3.83822,-5.93234 -1.43645,-0.24848 -3.28673,-0.74282 -4.11173,-1.09854 -0.88767,-0.38274 -2.67736,0.36846 -4.384137,1.84018 -2.54053,2.19065 -2.81901,2.97244 -2.33754,6.56211 0.33111,2.4686 1.4299,4.84125 2.78715,6.01839 2.970207,2.57605 9.043637,2.58513 11.367767,0.017 z"
       id="path3448"
       inkscape:connector-curvature="0" />
    <path
       style="fill:#000000"
       d="m 88.818113,669.56228 c 1.30404,-0.69791 1.78524,-2.22662 1.83195,-5.81996 l 0.0634,-4.87344 -4.63927,-1.24081 c -4.33639,-1.15981 -4.75408,-1.09904 -6.39769,0.93074 -2.45404,3.0306 -2.19181,6.60752 0.69612,9.49545 2.57674,2.57674 5.47997,3.09513 8.44553,1.50802 z"
       id="path3446"
       inkscape:connector-curvature="0" />
    <path
       style="fill:#000000"
       d="m 130.82684,667.05596 c 5.61336,-2.90279 6.3969,-10.33236 1.59598,-15.13328 -3.53449,-3.53449 -8.49498,-3.26984 -12.42787,0.66304 -4.16396,4.16396 -4.2204,8.93345 -0.15384,13 3.2627,3.2627 6.64431,3.71527 10.98573,1.47024 z"
       id="path3444"
       inkscape:connector-curvature="0" />
    <path
       style="fill:#000000"
       d="m 148.28317,662.43622 c 6.54577,-5.1489 0.11846,-15.35264 -7.76504,-12.32746 -1.23285,0.47309 -1.33576,1.02544 -0.48666,2.612 0.59224,1.10662 1.05977,4.21163 1.03894,6.90004 -0.0345,4.44963 0.16912,4.888 2.27002,4.888 1.26934,0 3.49357,-0.93266 4.94274,-2.07258 z"
       id="path3442"
       inkscape:connector-curvature="0" />
    <path
       style="fill:#000000"
       d="m 95.706893,651.26906 c 0.86288,-0.71612 1.06865,-2.11824 0.61189,-4.1696 -0.37849,-1.69986 -0.63786,-4.53548 -0.57639,-6.30138 0.13217,-3.79622 -0.73333,-4.48928 -5.60628,-4.48928 -8.9465,0 -11.19961,12.78115 -2.86108,16.22995 2.38906,0.98812 6.4478,0.37694 8.43186,-1.26969 z"
       id="path3440"
       inkscape:connector-curvature="0" />
    <path
       style="fill:#000000"
       d="m 116.28167,648.87244 c 4.44245,-4.44246 3.35188,-11.93441 -2.14328,-14.72382 -3.28442,-1.66721 -6.86208,-1.2405 -10.19656,1.21616 -2.96533,2.18468 -3.969017,5.56445 -2.86398,9.64402 1.81661,6.70658 10.22429,8.84317 15.20382,3.86364 z"
       id="path3438"
       inkscape:connector-curvature="0" />
    <path
       style="fill:#000000"
       d="m 138.66803,644.51976 c 4.12482,-2.51495 4.36754,-6.52939 0.66111,-10.93423 -2.12898,-2.53015 -3.32993,-3.07673 -6.76022,-3.07673 -4.69729,0 -10.24092,4.02003 -9.21835,6.68481 0.3121,0.81332 0.56746,2.79196 0.56746,4.39698 0,2.4998 0.39429,2.92829 2.75,2.9885 1.5125,0.0386 3.65,0.45702 4.75,0.92971 2.97253,1.27734 3.69437,1.17887 7.25,-0.98904 z"
       id="path3436"
       inkscape:connector-curvature="0" />
    <path
       style="fill:#000000"
       d="m 107.53874,627.52802 c 1.92322,-0.46238 4.59458,-0.24358 6.96172,0.5702 2.11255,0.72626 3.9327,1.22825 4.04478,1.11553 0.11207,-0.11272 -0.41292,-1.67088 -1.16665,-3.46256 -3.14034,-7.46489 -14.08132,-6.58591 -16.05807,1.29008 -0.62014,2.47086 -0.4807,2.70562 1.19783,2.0167 1.04483,-0.42882 3.304,-1.1173 5.02039,-1.52995 z"
       id="path3434"
       inkscape:connector-curvature="0" />
    <path
       style="fill:#000000"
       d="m 137.69856,624.06161 c 1.09373,-1.09374 0.28923,-6.51671 -1.33436,-8.99463 -3.11813,-4.75886 -9.90252,-4.5384 -13.5959,0.44182 -1.77837,2.39799 -1.78254,2.64535 -0.10215,6.06211 l 1.75188,3.56211 6.37795,-0.27339 c 3.50787,-0.15037 6.61403,-0.50948 6.90258,-0.79802 z"
       id="path4209"
       inkscape:connector-curvature="0" />
  </g>
</svg>
